<svg xmlns="http://www.w3.org/2000/svg" width="21.805" height="21.805" viewBox="0 0 21.805 21.805">
  <path id="Icon_awesome-coins" data-name="Icon awesome-coins" d="M0,17.261v1.818c0,1.5,3.663,2.726,8.177,2.726s8.177-1.222,8.177-2.726V17.261c-1.759,1.239-4.974,1.818-8.177,1.818S1.759,18.5,0,17.261ZM13.628,5.451c4.514,0,8.177-1.222,8.177-2.726S18.142,0,13.628,0,5.451,1.222,5.451,2.726,9.114,5.451,13.628,5.451ZM0,12.793v2.2c0,1.5,3.663,2.726,8.177,2.726s8.177-1.222,8.177-2.726v-2.2c-1.759,1.448-4.978,2.2-8.177,2.2S1.759,14.241,0,12.793Zm17.716.468c2.44-.473,4.088-1.35,4.088-2.359V9.084a10.458,10.458,0,0,1-4.088,1.469ZM8.177,6.814C3.663,6.814,0,8.339,0,10.221s3.663,3.407,8.177,3.407,8.177-1.525,8.177-3.407S12.691,6.814,8.177,6.814Zm9.339,2.4c2.555-.46,4.289-1.363,4.289-2.4V5c-1.512,1.069-4.11,1.644-6.844,1.78A4.769,4.769,0,0,1,17.516,9.212Z" fill="#fbd406"/>
</svg>
