<svg xmlns="http://www.w3.org/2000/svg" width="15.945" height="10.63" viewBox="0 0 15.945 10.63">
  <path id="Icon_awesome-eye" data-name="Icon awesome-eye" d="M15.849,9.411A8.879,8.879,0,0,0,7.973,4.5,8.88,8.88,0,0,0,.1,9.411a.9.9,0,0,0,0,.808A8.879,8.879,0,0,0,7.973,15.13a8.88,8.88,0,0,0,7.876-4.911A.9.9,0,0,0,15.849,9.411ZM7.973,13.8a3.986,3.986,0,1,1,3.986-3.986A3.986,3.986,0,0,1,7.973,13.8Zm0-6.644a2.638,2.638,0,0,0-.7.1A1.325,1.325,0,0,1,5.42,9.114,2.651,2.651,0,1,0,7.973,7.158Z" transform="translate(0 -4.5)" fill="#ffe600"/>
</svg>
